<svg width="212" height="51" viewBox="0 0 212 51" fill="none" xmlns="http://www.w3.org/2000/svg">
<path d="M62.6636 37.0875C68.9416 37.0875 73.2879 33.3056 73.2879 27.5888C73.2879 23.2353 71.1367 20.9046 64.5953 18.398C59.9855 16.595 58.4929 15.4516 58.4929 13.4288C58.4929 11.5378 60.1612 10.0866 62.3563 10.0866C64.4197 10.0866 66.2197 11.3179 67.2733 13.6047L71.8391 10.7902C69.9074 7.09629 66.6587 5.20535 62.5319 5.20535C56.8246 5.20535 53.0051 8.59146 53.0051 13.5607C53.0051 18.0022 55.288 20.3329 61.6977 22.8395C66.2197 24.6425 67.8001 25.9617 67.8001 28.0726C67.8001 30.6671 65.8245 32.2062 62.7514 32.2062C59.1953 32.2062 56.7807 30.1394 56.3856 26.4894L50.9417 27.8527C51.8197 33.4376 56.5612 37.0875 62.6636 37.0875Z" fill="#363636"/>
<path d="M89.3342 19.0136V14.836H83.9342V6.74449L78.6659 10.6583V14.836H75.1538V19.0136H78.6659V30.4472C78.6659 35.0646 81.7391 36.9556 85.383 36.9556C86.7 36.9556 88.0171 36.7357 89.3342 36.296V32.0743C88.3683 32.3821 87.4464 32.558 86.7 32.558C84.9878 32.558 83.9342 31.7665 83.9342 30.0514V19.0136H89.3342Z" fill="#363636"/>
<path d="M102.465 14.3962C98.5138 14.3962 95.309 15.9353 92.7188 19.0576L96.5382 22.2678C98.1187 20.157 100.182 19.0136 102.377 19.0136C104.88 19.0136 106.46 20.4648 106.46 22.8395V23.4551H101.06C98.6016 23.4551 96.7577 23.763 95.309 24.4226C93.2017 25.3901 92.0602 27.325 92.0602 29.8755C92.0602 34.0092 95.309 36.9556 99.8748 36.9556C102.728 36.9556 105.187 35.7243 106.46 33.7014L106.899 36.5158H111.728V22.8395C111.728 17.6064 108.172 14.3962 102.465 14.3962ZM100.709 32.4701C98.6016 32.4701 97.3285 31.5026 97.3285 29.9635C97.3285 29.1719 97.6358 28.5563 98.2065 28.1605C98.909 27.6328 99.9626 27.4129 101.763 27.4129H106.46C106.46 30.2274 103.87 32.4701 100.709 32.4701Z" fill="#363636"/>
<path d="M128.381 14.3962C125.923 14.3962 123.508 15.8474 122.586 18.5299V14.836H117.274V36.5158H122.542V25.6099C122.542 21.5202 124.123 19.5413 127.328 19.5413C128.381 19.5413 129.216 19.8052 129.962 20.2889L132.508 15.6275C131.103 14.748 129.83 14.3962 128.381 14.3962Z" fill="#363636"/>
<path d="M139.528 36.5158H144.27L148.528 22.3118L152.787 36.5158H157.528L164.201 14.836H158.582L154.85 28.3804L150.767 14.836H146.245L142.162 28.4244L138.474 14.836H132.855L139.528 36.5158Z" fill="#363636"/>
<path d="M175.735 14.3962C171.784 14.3962 168.579 15.9353 165.989 19.0576L169.809 22.2678C171.389 20.157 173.452 19.0136 175.648 19.0136C178.15 19.0136 179.73 20.4648 179.73 22.8395V23.4551H174.331C171.872 23.4551 170.028 23.763 168.579 24.4226C166.472 25.3901 165.331 27.325 165.331 29.8755C165.331 34.0092 168.579 36.9556 173.145 36.9556C175.999 36.9556 178.457 35.7243 179.73 33.7014L180.169 36.5158H184.999V22.8395C184.999 17.6064 181.443 14.3962 175.735 14.3962ZM173.979 32.4701C171.872 32.4701 170.599 31.5026 170.599 29.9635C170.599 29.1719 170.906 28.5563 171.477 28.1605C172.179 27.6328 173.233 27.4129 175.033 27.4129H179.73C179.73 30.2274 177.14 32.4701 173.979 32.4701Z" fill="#363636"/>
<path d="M195.418 36.9556C196.427 36.9556 197.613 36.7357 198.798 36.296V32.0743C198.183 32.2502 197.613 32.3382 197.13 32.3382C196.164 32.3382 195.593 31.9424 195.593 30.9749V5.86498H190.325V31.3267C190.325 35.1966 192.476 36.9556 195.418 36.9556Z" fill="#363636"/>
<path d="M207.636 36.9556C208.646 36.9556 209.832 36.7357 211.017 36.296V32.0743C210.402 32.2502 209.832 32.3382 209.349 32.3382C208.383 32.3382 207.812 31.9424 207.812 30.9749V5.86498H202.544V31.3267C202.544 35.1966 204.695 36.9556 207.636 36.9556Z" fill="#363636"/>
<path d="M30.6416 5.15578C31.3862 3.10666 33.6482 2.05012 35.6939 2.79593C37.7396 3.54175 38.7944 5.80751 38.0498 7.85664L34.2127 18.4166C33.2531 21.9454 33.6604 23.3602 35.5577 25.3713L28.7194 22.8782L28.7301 22.8695L28.5789 22.8244L28.4345 22.7743C26.3888 22.0285 25.334 19.7627 26.0786 17.7136L30.6416 5.15578Z" fill="#363636"/>
<path d="M10.5844 26.6095C11.544 23.0807 11.1367 21.6659 9.23938 19.6548L16.0777 22.1479L16.067 22.1566L16.2283 22.2053L16.3626 22.2518C18.4083 22.9976 19.4631 25.2634 18.7186 27.3125L14.1555 39.8703C13.4109 41.9194 11.1489 42.976 9.1032 42.2302C7.05749 41.4843 6.00271 39.2186 6.74729 37.1695L10.5844 26.6095Z" fill="#363636"/>
<path d="M42.0828 35.8306C42.8274 33.7814 41.7726 31.5157 39.7269 30.7699L27.19 26.1992C25.1443 25.4534 22.8823 26.5099 22.1377 28.559L22.0912 28.6904L22.034 28.8444L19.5451 35.6942C21.5528 33.7937 22.9653 33.3857 26.4881 34.3469L37.0306 38.1904C39.0763 38.9362 41.3383 37.8797 42.0828 35.8306Z" fill="#363636"/>
<path d="M18.309 10.6792C21.8318 11.6404 23.2443 11.2324 25.252 9.33193L22.7631 16.1817L22.7544 16.1709C22.7271 16.2702 22.695 16.369 22.6594 16.4671C21.9148 18.5162 19.6528 19.5727 17.6071 18.8269L5.07018 14.2562C3.02446 13.5104 1.96968 11.2447 2.71426 9.19553C3.45884 7.14641 5.72082 6.08987 7.76654 6.83569L18.309 10.6792Z" fill="#363636"/>
<path d="M26.3928 6.19247C27.252 3.82784 26.0351 1.21386 23.6744 0.353204C21.3138 -0.507451 18.7041 0.71147 17.8449 3.0761C16.9857 5.44073 18.2026 8.05471 20.5633 8.91537C22.924 9.77602 25.5336 8.5571 26.3928 6.19247Z" fill="#363636"/>
<path d="M38.692 26.514C41.0527 27.3746 43.6623 26.1557 44.5215 23.7911C45.3807 21.4264 44.1638 18.8125 41.8031 17.9518C39.4425 17.0911 36.8328 18.3101 35.9736 20.6747C35.1144 23.0393 36.3313 25.6533 38.692 26.514Z" fill="#363636"/>
<path d="M6.10514 18.5121C3.74445 17.6515 1.13482 18.8704 0.275595 21.235C-0.583626 23.5997 0.633266 26.2136 2.99396 27.0743C5.35465 27.9349 7.96428 26.716 8.82351 24.3514C9.68273 21.9868 8.46584 19.3728 6.10514 18.5121Z" fill="#363636"/>
<path d="M21.1227 44.6729C18.762 43.8122 17.5451 41.1983 18.4043 38.8336C19.2635 36.469 21.8732 35.2501 24.2338 36.1107C26.5945 36.9714 27.8114 39.5854 26.9522 41.95C26.093 44.3146 23.4833 45.5336 21.1227 44.6729Z" fill="#363636"/>
<path d="M114.28 42.3175C115.447 42.3175 116.109 43.0426 116.109 44.3197V47.7612H114.848V44.6443C114.848 43.8327 114.543 43.4539 113.892 43.4539C113.061 43.4539 112.715 44.0924 112.715 45.6292V47.7612H111.454V40.218H112.715V43.0318C113.061 42.5664 113.597 42.3175 114.28 42.3175Z" fill="#363636"/>
<path d="M120.694 42.4258H121.955V47.7612H120.694V47.1443C120.326 47.6529 119.759 47.8694 119.149 47.8694C117.846 47.8694 117.3 46.8954 117.3 45.759V42.4258H118.561V45.4344C118.561 45.8023 118.561 46.733 119.517 46.733C120.694 46.733 120.694 45.4019 120.694 44.4495V42.4258Z" fill="#363636"/>
<path d="M129.219 42.3175C130.469 42.3175 131.026 43.2915 131.026 44.3629V47.7612H129.765V44.7526C129.765 44.3305 129.713 43.4539 128.882 43.4539C127.821 43.4539 127.863 44.6552 127.863 45.7266V47.7612H126.602V44.7526C126.602 44.3305 126.55 43.4539 125.73 43.4539C124.669 43.4539 124.7 44.6552 124.7 45.7266V47.7612H123.439L123.429 42.4258H124.648V43.0967C124.984 42.5015 125.52 42.3175 126.035 42.3175C126.602 42.3175 127.233 42.5448 127.548 43.3673C127.947 42.5664 128.546 42.3175 129.219 42.3175Z" fill="#363636"/>
<path d="M134.374 42.3175C135.74 42.3175 136.591 43.1076 136.591 44.3954V47.7612H135.435L135.33 47.0685C135.025 47.5664 134.437 47.8694 133.754 47.8694C132.661 47.8694 131.883 47.1443 131.883 46.127C131.883 45.4993 132.157 45.0231 132.661 44.785C133.008 44.6227 133.449 44.5469 134.037 44.5469H135.33V44.3954C135.33 43.811 134.952 43.4539 134.353 43.4539C133.827 43.4539 133.333 43.7353 132.955 44.2547L132.041 43.4647C132.661 42.6963 133.428 42.3175 134.374 42.3175ZM133.953 46.7655C134.71 46.7655 135.33 46.2136 135.33 45.5209H134.206C133.775 45.5209 133.523 45.5751 133.354 45.7049C133.218 45.8023 133.144 45.9538 133.144 46.1486C133.144 46.5274 133.449 46.7655 133.953 46.7655Z" fill="#363636"/>
<path d="M140.745 42.3175C141.911 42.3175 142.573 43.0534 142.573 44.3197V47.7612H141.312V44.6443C141.312 44.2764 141.312 43.4539 140.356 43.4539C139.179 43.4539 139.179 44.6768 139.179 45.6292V47.7612H137.918V42.4258H139.179V43.0426C139.547 42.534 140.114 42.3175 140.745 42.3175Z" fill="#363636"/>
<path d="M143.9 41.4193V40.218H145.224V41.4193H143.9ZM143.932 47.7612V42.4258H145.193V47.7612H143.932Z" fill="#363636"/>
<path d="M147.87 46.6681H150.381V47.7612H146.209V46.8954L148.826 43.5188H146.335V42.4258H150.37V43.3565L147.87 46.6681Z" fill="#363636"/>
<path d="M155.846 45.0231C155.846 45.1855 155.836 45.3478 155.815 45.5209H152.263C152.316 46.2244 152.736 46.6898 153.555 46.6898C154.018 46.6898 154.438 46.5382 154.795 46.1162L155.668 46.9062C155.1 47.5555 154.417 47.8694 153.545 47.8694C151.759 47.8694 151.002 46.5491 151.002 45.1205C151.002 43.7244 151.738 42.3175 153.461 42.3175C155.069 42.3175 155.846 43.5405 155.846 45.0231ZM152.252 44.4928H154.638C154.617 43.811 154.112 43.3998 153.45 43.3998C152.683 43.3998 152.326 43.9625 152.252 44.4928Z" fill="#363636"/>
<path d="M162.095 42.3175C162.442 42.3175 162.747 42.4041 163.083 42.6206L162.474 43.7677C162.295 43.6487 162.095 43.5837 161.843 43.5837C161.076 43.5837 160.698 44.0707 160.698 45.0772V47.7612H159.437V42.4258H160.708V43.3348C160.929 42.6747 161.507 42.3175 162.095 42.3175Z" fill="#363636"/>
<path d="M167.873 45.0231C167.873 45.1855 167.862 45.3478 167.841 45.5209H164.29C164.342 46.2244 164.762 46.6898 165.582 46.6898C166.044 46.6898 166.465 46.5382 166.822 46.1162L167.694 46.9062C167.127 47.5555 166.444 47.8694 165.572 47.8694C163.785 47.8694 163.029 46.5491 163.029 45.1205C163.029 43.7244 163.764 42.3175 165.487 42.3175C167.095 42.3175 167.873 43.5405 167.873 45.0231ZM164.279 44.4928H166.664C166.643 43.811 166.139 43.3998 165.477 43.3998C164.71 43.3998 164.353 43.9625 164.279 44.4928Z" fill="#363636"/>
<path d="M170.968 47.8694C169.276 47.8694 168.457 46.5166 168.457 45.1097C168.457 43.7028 169.266 42.3175 170.957 42.3175C171.987 42.3175 172.796 42.8262 173.196 43.8868L171.998 44.3738C171.861 43.811 171.472 43.4539 170.957 43.4539C170.085 43.4539 169.749 44.2655 169.749 45.1097C169.749 45.9538 170.075 46.733 170.957 46.733C171.462 46.733 171.861 46.3867 171.998 45.8348L173.143 46.2893C172.796 47.285 171.998 47.8694 170.968 47.8694Z" fill="#363636"/>
<path d="M176.183 47.8694C174.575 47.8694 173.587 46.5924 173.587 45.088C173.587 43.5729 174.575 42.3175 176.183 42.3175C177.78 42.3175 178.778 43.5729 178.778 45.088C178.778 46.5924 177.78 47.8694 176.183 47.8694ZM176.183 46.733C177.139 46.733 177.517 45.9538 177.517 45.088C177.517 44.2114 177.139 43.4539 176.183 43.4539C175.226 43.4539 174.848 44.2114 174.848 45.088C174.848 45.9538 175.226 46.733 176.183 46.733Z" fill="#363636"/>
<path d="M181.772 46.9495C182.822 47.0902 184.178 47.2092 184.178 48.4863C184.178 49.601 183.19 50.0771 181.793 50.0771C180.248 50.0771 179.365 49.4927 179.365 48.3889C179.365 48.259 179.376 48.2049 179.386 48.1508L180.132 47.6638C179.765 47.4581 179.513 47.1227 179.513 46.5707C179.513 46.1054 179.691 45.7699 179.996 45.4993C179.733 45.1638 179.576 44.7417 179.576 44.2764C179.576 43.1184 180.542 42.3175 181.698 42.3175C182.15 42.3175 182.57 42.4366 182.917 42.653L183.705 41.9604L184.367 42.7829L183.621 43.4106C183.758 43.6811 183.842 43.995 183.842 44.3413C183.842 45.5318 182.875 46.2893 181.74 46.2893C181.383 46.2893 181.047 46.2136 180.742 46.0837C180.647 46.1486 180.595 46.2352 180.595 46.3651C180.595 46.7547 181.12 46.8629 181.772 46.9495ZM181.719 43.3998C181.183 43.3998 180.837 43.7677 180.837 44.3088C180.837 44.8175 181.131 45.2287 181.719 45.2287C182.297 45.2287 182.581 44.8283 182.581 44.3088C182.581 43.7569 182.255 43.3998 181.719 43.3998ZM181.845 49.1031C182.381 49.1031 182.917 48.9733 182.917 48.6053C182.917 48.1941 182.255 48.1508 181.509 48.0425L181.078 47.9776L180.626 48.4213C180.616 48.4538 180.616 48.4863 180.616 48.5079C180.616 48.9624 181.257 49.1031 181.845 49.1031Z" fill="#363636"/>
<path d="M188.01 42.3175C189.176 42.3175 189.838 43.0534 189.838 44.3197V47.7612H188.577V44.6443C188.577 44.2764 188.577 43.4539 187.621 43.4539C186.444 43.4539 186.444 44.6768 186.444 45.6292V47.7612H185.183V42.4258H186.444V43.0426C186.812 42.534 187.379 42.3175 188.01 42.3175Z" fill="#363636"/>
<path d="M191.165 41.4193V40.218H192.489V41.4193H191.165ZM191.197 47.7612V42.4258H192.458V47.7612H191.197Z" fill="#363636"/>
<path d="M196.69 43.4539H195.397V46.1703C195.397 46.5924 195.65 46.7872 196.059 46.7872C196.238 46.7872 196.459 46.7439 196.69 46.6681V47.7071C196.375 47.8153 196.059 47.8694 195.744 47.8694C194.872 47.8694 194.136 47.404 194.136 46.2677V43.4539H193.296V42.4258H194.136V41.3976L195.397 40.4344V42.4258H196.69V43.4539Z" fill="#363636"/>
<path d="M197.763 41.4193V40.218H199.087V41.4193H197.763ZM197.795 47.7612V42.4258H199.056V47.7612H197.795Z" fill="#363636"/>
<path d="M202.658 47.8694C201.05 47.8694 200.062 46.5924 200.062 45.088C200.062 43.5729 201.05 42.3175 202.658 42.3175C204.255 42.3175 205.253 43.5729 205.253 45.088C205.253 46.5924 204.255 47.8694 202.658 47.8694ZM202.658 46.733C203.614 46.733 203.992 45.9538 203.992 45.088C203.992 44.2114 203.614 43.4539 202.658 43.4539C201.701 43.4539 201.323 44.2114 201.323 45.088C201.323 45.9538 201.701 46.733 202.658 46.733Z" fill="#363636"/>
<path d="M209.087 42.3175C210.254 42.3175 210.916 43.0534 210.916 44.3197V47.7612H209.655V44.6443C209.655 44.2764 209.655 43.4539 208.699 43.4539C207.522 43.4539 207.522 44.6768 207.522 45.6292V47.7612H206.261V42.4258H207.522V43.0426C207.889 42.534 208.457 42.3175 209.087 42.3175Z" fill="#363636"/>
</svg>
