<svg width="758" height="615" viewBox="0 0 758 615" fill="none" xmlns="http://www.w3.org/2000/svg">
<g opacity="0.05">
<path d="M518.479 -57.2089C531.078 -91.8238 569.352 -109.672 603.967 -97.0727C638.582 -84.4739 656.43 -46.1994 643.831 -11.5845L578.904 166.801C562.668 226.411 569.559 250.311 601.663 284.283L485.953 242.168L486.135 242.021L483.575 241.26L481.132 240.414C446.517 227.815 428.67 189.54 441.268 154.925L518.479 -57.2089Z" fill="#363636"/>
<path d="M179.096 305.199C195.332 245.589 188.441 221.689 156.337 187.717L272.047 229.832L271.865 229.979L274.594 230.802L276.868 231.587C311.483 244.185 329.33 282.46 316.732 317.075L239.521 529.209C226.922 563.824 188.648 581.672 154.033 569.073C119.418 556.474 101.57 518.199 114.169 483.585L179.096 305.199Z" fill="#363636"/>
<path d="M712.073 460.967C724.672 426.352 706.824 388.078 672.209 375.479L460.075 298.268C425.46 285.669 387.185 303.517 374.586 338.132L373.8 340.352L372.832 342.953L330.717 458.663C364.689 426.559 388.589 419.668 448.199 435.904L626.585 500.831C661.199 513.43 699.474 495.582 712.073 460.967Z" fill="#363636"/>
<path d="M309.801 36.0962C369.411 52.3324 393.311 45.4407 427.283 13.3371L385.168 129.047L385.021 128.865C384.56 130.542 384.017 132.211 383.414 133.868C370.815 168.483 332.54 186.331 297.925 173.732L85.7911 96.5212C51.1762 83.9223 33.3285 45.6479 45.9273 11.0329C58.5261 -23.582 96.8006 -41.4297 131.416 -28.8309L309.801 36.0962Z" fill="#363636"/>
<path d="M446.586 -39.6965C461.124 -79.6411 440.534 -123.798 400.589 -138.337C360.644 -152.875 316.487 -132.285 301.949 -92.34C287.41 -52.3954 308.001 -8.23843 347.945 6.30023C387.89 20.8389 432.047 0.248199 446.586 -39.6965Z" fill="#D41E1E"/>
<path d="M654.696 303.586C694.641 318.124 738.798 297.534 753.337 257.589C767.875 217.644 747.285 173.487 707.34 158.949C667.395 144.41 623.238 165.001 608.7 204.946C594.161 244.89 614.752 289.047 654.696 303.586Z" fill="#D41E1E"/>
<path d="M103.304 168.414C63.3589 153.876 19.2019 174.466 4.66328 214.411C-9.87539 254.356 10.7153 298.512 50.66 313.051C90.6046 327.59 134.762 306.999 149.3 267.055C163.839 227.11 143.248 182.953 103.304 168.414Z" fill="#D41E1E"/>
<path d="M357.411 610.337C317.466 595.798 296.876 551.641 311.414 511.697C325.953 471.752 370.11 451.161 410.055 465.7C449.999 480.238 470.59 524.395 456.051 564.34C441.512 604.285 397.356 624.875 357.411 610.337Z" fill="#D41E1E"/>
</g>
</svg>
