<svg width="220" height="47" viewBox="0 0 220 47" fill="none" xmlns="http://www.w3.org/2000/svg">
<path d="M65.3312 38.7657C71.8765 38.7657 76.4078 34.8045 76.4078 28.8165C76.4078 24.2565 74.165 21.8152 67.3451 19.1897C62.5392 17.3012 60.9829 16.1037 60.9829 13.9848C60.9829 12.0042 62.7222 10.4842 65.0108 10.4842C67.162 10.4842 69.0387 11.7739 70.1372 14.1691L74.8974 11.2212C72.8834 7.35205 69.4964 5.37143 65.1939 5.37143C59.2436 5.37143 55.2616 8.91813 55.2616 14.123C55.2616 18.7752 57.6416 21.2164 64.3242 23.8419C69.0387 25.7304 70.6864 27.1123 70.6864 29.3232C70.6864 32.0408 68.6267 33.6529 65.4227 33.6529C61.7153 33.6529 59.1979 31.4881 58.7859 27.665L53.1103 29.0929C54.0257 34.9426 58.969 38.7657 65.3312 38.7657Z" fill="#363636"/>
<path d="M93.1371 19.8346V15.4588H87.5073V6.98356L82.0148 11.083V15.4588H78.3531V19.8346H82.0148V31.8105C82.0148 36.6469 85.2187 38.6275 89.0177 38.6275C90.3909 38.6275 91.764 38.3972 93.1371 37.9366V33.5147C92.1302 33.8372 91.169 34.0214 90.3909 34.0214C88.6058 34.0214 87.5073 33.1923 87.5073 31.3959V19.8346H93.1371Z" fill="#363636"/>
<path d="M106.827 14.9982C102.708 14.9982 99.3663 16.6103 96.6658 19.8807L100.648 23.2431C102.296 21.0322 104.447 19.8346 106.735 19.8346C109.344 19.8346 110.992 21.3546 110.992 23.8419V24.4868H105.362C102.799 24.4868 100.877 24.8092 99.3663 25.5001C97.1693 26.5135 95.9792 28.5401 95.9792 31.2117C95.9792 35.5414 99.3663 38.6275 104.126 38.6275C107.102 38.6275 109.665 37.3378 110.992 35.219L111.45 38.1669H116.485V23.8419C116.485 18.3607 112.777 14.9982 106.827 14.9982ZM104.996 33.9293C102.799 33.9293 101.472 32.916 101.472 31.3038C101.472 30.4747 101.792 29.8299 102.387 29.4153C103.12 28.8626 104.218 28.6323 106.095 28.6323H110.992C110.992 31.5802 108.292 33.9293 104.996 33.9293Z" fill="#363636"/>
<path d="M133.847 14.9982C131.283 14.9982 128.766 16.5182 127.805 19.3279V15.4588H122.267V38.1669H127.759V26.7438C127.759 22.4601 129.407 20.3873 132.748 20.3873C133.847 20.3873 134.716 20.6637 135.494 21.1704L138.149 16.2879C136.684 15.3667 135.357 14.9982 133.847 14.9982Z" fill="#363636"/>
<path d="M145.468 38.1669H150.411L154.851 23.2892L159.291 38.1669H164.234L171.191 15.4588H165.332L161.442 29.6456L157.185 15.4588H152.471L148.214 29.6917L144.369 15.4588H138.511L145.468 38.1669Z" fill="#363636"/>
<path d="M183.216 14.9982C179.097 14.9982 175.756 16.6103 173.055 19.8807L177.037 23.2431C178.685 21.0322 180.836 19.8346 183.125 19.8346C185.734 19.8346 187.382 21.3546 187.382 23.8419V24.4868H181.752C179.189 24.4868 177.266 24.8092 175.756 25.5001C173.559 26.5135 172.369 28.5401 172.369 31.2117C172.369 35.5414 175.756 38.6275 180.516 38.6275C183.491 38.6275 186.054 37.3378 187.382 35.219L187.839 38.1669H192.874V23.8419C192.874 18.3607 189.167 14.9982 183.216 14.9982ZM181.386 33.9293C179.189 33.9293 177.861 32.916 177.861 31.3038C177.861 30.4747 178.182 29.8299 178.777 29.4153C179.509 28.8626 180.608 28.6323 182.484 28.6323H187.382C187.382 31.5802 184.681 33.9293 181.386 33.9293Z" fill="#363636"/>
<path d="M203.737 38.6275C204.789 38.6275 206.025 38.3972 207.261 37.9366V33.5147C206.62 33.699 206.025 33.7911 205.522 33.7911C204.515 33.7911 203.92 33.3766 203.92 32.3632V6.06234H198.427V32.7317C198.427 36.7851 200.67 38.6275 203.737 38.6275Z" fill="#363636"/>
<path d="M216.476 38.6275C217.528 38.6275 218.764 38.3972 220 37.9366V33.5147C219.359 33.699 218.764 33.7911 218.261 33.7911C217.254 33.7911 216.659 33.3766 216.659 32.3632V6.06234H211.166V32.7317C211.166 36.7851 213.409 38.6275 216.476 38.6275Z" fill="#363636"/>
<path d="M31.946 5.3195C32.7223 3.17319 35.0806 2.06654 37.2134 2.84773C39.3462 3.62893 40.4459 6.00215 39.6696 8.14845L35.6691 19.2093C34.6687 22.9054 35.0934 24.3873 37.0714 26.4938L29.942 23.8825L29.9532 23.8733L29.7955 23.8262L29.6449 23.7737C27.5121 22.9925 26.4125 20.6193 27.1887 18.4729L31.946 5.3195Z" fill="#363636"/>
<path d="M11.035 27.7907C12.0354 24.0946 11.6108 22.6127 9.6327 20.5062L16.7621 23.1175L16.751 23.1267L16.9191 23.1777L17.0592 23.2263C19.192 24.0075 20.2917 26.3808 19.5154 28.5271L14.7581 41.6805C13.9818 43.8268 11.6235 44.9335 9.49073 44.1523C7.35793 43.3711 6.25825 40.9979 7.03452 38.8515L11.035 27.7907Z" fill="#363636"/>
<path d="M43.8743 37.4491C44.6506 35.3028 43.5509 32.9296 41.4181 32.1484L28.3475 27.361C26.2147 26.5798 23.8564 27.6864 23.0801 29.8327L23.0317 29.9704L22.972 30.1317L20.3771 37.3063C22.4703 35.3157 23.9429 34.8884 27.6158 35.8951L38.607 39.9209C40.7398 40.7021 43.098 39.5955 43.8743 37.4491Z" fill="#363636"/>
<path d="M19.0884 11.1049C22.7612 12.1116 24.2338 11.6843 26.327 9.69372L23.7321 16.8683L23.7231 16.8571C23.6946 16.9611 23.6612 17.0645 23.624 17.1673C22.8477 19.3136 20.4895 20.4202 18.3567 19.639L5.28601 14.8516C3.15322 14.0704 2.05353 11.6972 2.82981 9.55085C3.60608 7.40455 5.96436 6.2979 8.09716 7.07909L19.0884 11.1049Z" fill="#363636"/>
<path d="M27.5164 6.40536C28.4122 3.92858 27.1435 1.19062 24.6823 0.289148C22.2211 -0.612326 19.5004 0.664407 18.6046 3.14119C17.7088 5.61797 18.9775 8.35593 21.4386 9.2574C23.8998 10.1589 26.6206 8.88214 27.5164 6.40536Z" fill="#D41E1E"/>
<path d="M40.3391 27.6907C42.8003 28.5921 45.521 27.3154 46.4168 24.8386C47.3126 22.3619 46.0439 19.6239 43.5827 18.7224C41.1215 17.8209 38.4008 19.0977 37.505 21.5745C36.6092 24.0512 37.8779 26.7892 40.3391 27.6907Z" fill="#D41E1E"/>
<path d="M6.36504 19.3093C3.90385 18.4079 1.18313 19.6846 0.287328 22.1614C-0.608472 24.6381 0.660224 27.3761 3.12141 28.2776C5.5826 29.1791 8.30333 27.9023 9.19913 25.4255C10.0949 22.9488 8.82623 20.2108 6.36504 19.3093Z" fill="#D41E1E"/>
<path d="M22.0219 46.7109C19.5607 45.8094 18.292 43.0714 19.1878 40.5946C20.0836 38.1179 22.8043 36.8411 25.2655 37.7426C27.7267 38.6441 28.9954 41.382 28.0996 43.8588C27.2038 46.3356 24.483 47.6123 22.0219 46.7109Z" fill="#D41E1E"/>
</svg>
