<svg width="47" height="47" viewBox="0 0 47 47" fill="none" xmlns="http://www.w3.org/2000/svg">
<g clip-path="url(#clip0_107_11)">
<path d="M32.1484 5.31948C32.9295 3.17316 35.3028 2.06651 37.4491 2.8477C39.5954 3.6289 40.702 6.00212 39.9208 8.14843L35.895 19.2092C34.8883 22.9054 35.3156 24.3873 37.3062 26.4938L30.1316 23.8824L30.1429 23.8733L29.9842 23.8261L29.8327 23.7736C27.6863 22.9925 26.5797 20.6192 27.3609 18.473L32.1484 5.31948Z" fill="#363636"/>
<path d="M11.105 27.7908C12.1117 24.0946 11.6844 22.6126 9.69379 20.5062L16.8684 23.1175L16.8571 23.1267L17.0264 23.1777L17.1673 23.2263C19.3137 24.0075 20.4203 26.3808 19.6391 28.527L14.8516 41.6805C14.0704 43.8268 11.6972 44.9334 9.55092 44.1523C7.4046 43.3711 6.29795 40.9979 7.07915 38.8515L11.105 27.7908Z" fill="#363636"/>
<path d="M44.1522 37.4491C44.9333 35.3029 43.8267 32.9296 41.6804 32.1485L28.5269 27.3609C26.3806 26.5798 24.0074 27.6864 23.2262 29.8328L23.1775 29.9704L23.1174 30.1317L20.5061 37.3062C22.6125 35.3157 24.0944 34.8883 27.7906 35.8951L38.8514 39.9209C40.9978 40.7021 43.371 39.5955 44.1522 37.4491Z" fill="#363636"/>
<path d="M19.2092 11.1049C22.9054 12.1117 24.3873 11.6843 26.4938 9.69372L23.8824 16.8683L23.8733 16.857C23.8447 16.961 23.811 17.0645 23.7736 17.1672C22.9925 19.3136 20.6192 20.4202 18.473 19.6391L5.31947 14.8515C3.17316 14.0704 2.06651 11.6972 2.8477 9.55086C3.6289 7.40454 6.00212 6.29789 8.14843 7.07909L19.2092 11.1049Z" fill="#363636"/>
<path d="M27.6907 6.40536C28.5921 3.92859 27.3155 1.19063 24.8387 0.289148C22.3619 -0.612326 19.624 0.664406 18.7225 3.14119C17.821 5.61797 19.0977 8.35593 21.5745 9.2574C24.0512 10.1589 26.7892 8.88214 27.6907 6.40536Z" fill="#D41E1E"/>
<path d="M40.5945 27.6906C43.0713 28.5921 45.8093 27.3154 46.7108 24.8387C47.6122 22.3619 46.3355 19.6239 43.8587 18.7224C41.382 17.821 38.644 19.0976 37.7426 21.5744C36.841 24.0512 38.1177 26.7892 40.5945 27.6906Z" fill="#D41E1E"/>
<path d="M6.40536 19.3094C3.92859 18.4079 1.19063 19.6845 0.289148 22.1613C-0.612326 24.6381 0.664408 27.3761 3.14119 28.2775C5.61797 29.179 8.35593 27.9024 9.2574 25.4256C10.1589 22.9488 8.88214 20.2108 6.40536 19.3094Z" fill="#D41E1E"/>
<path d="M22.1614 46.7108C19.6846 45.8094 18.408 43.0714 19.3094 40.5946C20.2109 38.1178 22.9489 36.8411 25.4256 37.7426C27.9024 38.6441 29.1791 41.3821 28.2776 43.8587C27.3761 46.3355 24.6382 47.6123 22.1614 46.7108Z" fill="#D41E1E"/>
</g>
<defs>
<clipPath id="clip0_107_11">
<rect width="47" height="47" fill="white"/>
</clipPath>
</defs>
</svg>
